<svg width="1024" height="1024" viewBox="0 0 1024 1024" fill="none" xmlns="http://www.w3.org/2000/svg">
  <rect x="52" y="52" width="920" height="920" rx="224" fill="#090A0D"/>
  <rect x="52" y="52" width="920" height="920" rx="224" fill="url(#bg)" fill-opacity="0.7"/>
  <path d="M176 146C277 86 472 78 604 116C492 126 329 160 176 146Z" fill="white" fill-opacity="0.14"/>
  <path d="M306 708V338C306 313 337 302 353 321L668 700C684 719 715 708 715 683V316" stroke="#F8F5EE" stroke-width="86" stroke-linecap="round" stroke-linejoin="round"/>
  <path d="M306 708V338C306 313 337 302 353 321L668 700C684 719 715 708 715 683V316" stroke="url(#shine)" stroke-width="26" stroke-linecap="round" stroke-linejoin="round" opacity="0.42"/>
  <circle cx="306" cy="720" r="88" fill="#F8F5EE"/>
  <circle cx="715" cy="304" r="42" fill="#F8F5EE"/>
  <rect x="52" y="52" width="920" height="920" rx="224" stroke="#F8F5EE" stroke-opacity="0.46" stroke-width="18"/>
  <defs>
    <linearGradient id="bg" x1="170" y1="120" x2="864" y2="940" gradientUnits="userSpaceOnUse">
      <stop stop-color="#24262D"/>
      <stop offset="0.48" stop-color="#101116"/>
      <stop offset="1" stop-color="#030406"/>
    </linearGradient>
    <linearGradient id="shine" x1="282" y1="280" x2="766" y2="762" gradientUnits="userSpaceOnUse">
      <stop stop-color="white"/>
      <stop offset="1" stop-color="white" stop-opacity="0"/>
    </linearGradient>
  </defs>
</svg>
